<?xml version="1.0" encoding="UTF-8"?>
<svg width="1088px" height="268px" viewBox="0 0 1088 268" version="1.1" xmlns="http://www.w3.org/2000/svg" xmlns:xlink="http://www.w3.org/1999/xlink">
    <!-- Generator: Sketch 54.1 (76490) - https://sketchapp.com -->
    <title>JoinMyCall Logo</title>
    <desc>Created with Sketch.</desc>
    <g id="JoinMyCall-Logo" stroke="none" stroke-width="1" fill="none" fill-rule="evenodd">
        <path d="M303.318842,80.5455551 L322.267688,80.5455551 L322.267688,154.693212 C322.216197,175.083817 308.570968,187.44176 288.231854,187.44176 C269.746431,187.44176 255.534797,177.452423 255.534797,157.988663 L274.535134,157.988663 C274.689608,166.53624 280.405157,171.736874 288.952734,171.736874 C298.118208,171.736874 303.267351,165.81536 303.318842,154.693212 L303.318842,80.5455551 Z M376.694205,187.544743 C353.523062,187.544743 338.796514,171.22196 338.796514,146.763532 C338.796514,122.253612 353.523062,105.879338 376.694205,105.879338 C399.865348,105.879338 414.591896,122.253612 414.591896,146.763532 C414.591896,171.22196 399.865348,187.544743 376.694205,187.544743 Z M376.797188,172.612229 C389.412588,172.612229 395.694542,161.181132 395.694542,146.71204 C395.694542,132.242949 389.412588,120.657378 376.797188,120.657378 C363.975822,120.657378 357.693868,132.242949 357.693868,146.71204 C357.693868,161.181132 363.975822,172.612229 376.797188,172.612229 Z M430.348357,186 L430.348357,106.909166 L448.988254,106.909166 L448.988254,186 L430.348357,186 Z M439.719797,95.684035 C433.746792,95.684035 428.906597,91.1527893 428.906597,85.5917151 C428.906597,79.9791494 433.746792,75.4479037 439.719797,75.4479037 C445.641312,75.4479037 450.481506,79.9791494 450.481506,85.5917151 C450.481506,91.1527893 445.641312,95.684035 439.719797,95.684035 Z M486.782999,139.657715 L486.782999,186 L468.143102,186 L468.143102,106.909166 L485.959136,106.909166 L485.959136,120.348429 L486.885982,120.348429 C490.490381,111.543395 498.626027,105.879338 510.469056,105.879338 C526.791838,105.879338 537.605038,116.692538 537.553547,135.641383 L537.55373,186 L518.91365,186 L518.91365,138.524903 C518.91365,127.96916 513.14661,121.635715 503.517713,121.635715 C493.68285,121.635715 486.782999,128.226618 486.782999,139.657715 Z M557.377831,80.5455551 L580.754939,80.5455551 L612.061728,156.958835 L613.297522,156.958835 L644.60431,80.5455551 L667.981419,80.5455551 L667.981419,186 L649.65047,186 L649.65047,113.551561 L648.672133,113.551561 L619.527985,185.691051 L605.831265,185.691051 L576.687117,113.397086 L575.708779,113.397086 L575.708779,186 L557.377831,186 L557.377831,80.5455551 Z M701.502466,215.504588 C696.404814,215.504588 691.873569,214.577743 689.350489,213.496423 L693.675769,199.027331 C701.811414,201.344446 707.166523,200.675057 710.719431,191.921514 L712.315666,187.647726 L683.63494,106.909166 L703.407648,106.909166 L721.635614,166.639223 L722.459477,166.639223 L740.738934,106.909166 L760.666117,107.012149 L728.895905,195.577406 C724.416151,207.98684 716.023048,215.504588 701.502466,215.504588 Z M864.62739,116.126132 L845.369596,116.126132 C843.155464,103.510732 833.114636,96.2504407 820.29327,96.2504407 C803.043642,96.2504407 790.891665,109.483738 790.891665,133.272778 C790.891665,157.473749 803.146625,170.295114 820.241779,170.295114 C832.857179,170.295114 842.949499,163.343772 845.369596,150.985829 L864.62739,151.088812 C861.692378,171.22196 845.060647,187.44176 819.984322,187.44176 C792.17895,187.44176 771.685362,167.308612 771.685362,133.272778 C771.685362,99.1854521 792.436408,79.1037951 819.984322,79.1037951 C843.36143,79.1037951 861.38343,92.6975322 864.62739,116.126132 Z M904.121418,187.596234 C889.03443,187.596234 877.654824,179.357606 877.654824,163.807194 C877.654824,145.99116 892.329881,141.408423 907.674327,139.760698 C921.628504,138.267446 927.241069,138.009989 927.241069,132.65488 L927.241069,132.345932 C927.241069,124.570726 922.503858,120.142463 913.853298,120.142463 C904.739315,120.142463 899.487189,124.776692 897.633498,130.183292 L880.229395,127.711703 C884.34871,113.294103 897.118584,105.879338 913.750315,105.879338 C928.837304,105.879338 945.880966,112.161292 945.880966,133.066812 L945.880966,186 L927.961949,186 L927.961949,175.135309 L927.344052,175.135309 C923.945618,181.777703 916.530852,187.596234 904.121418,187.596234 Z M908.961612,173.899514 C920.186744,173.899514 927.292561,166.433257 927.292561,157.628223 L927.292561,148.308275 C924.872464,150.264949 915.089092,151.500743 910.197407,152.170132 C901.855795,153.354435 895.625332,156.340937 895.625332,163.498246 C895.625332,170.346606 901.186407,173.899514 908.961612,173.899514 Z M983.315314,80.5455551 L983.315314,186 L964.675417,186 L964.675417,80.5455551 L983.315314,80.5455551 Z M1021.11006,80.5455551 L1021.11006,186 L1002.47016,186 L1002.47016,80.5455551 L1021.11006,80.5455551 Z" id="JoinMyCall" fill="#000000" fill-rule="nonzero"></path>
        <g id="round-voice_chat-24px" transform="translate(56.000000, 65.000000)">
            <polygon id="Path" points="0 0 158 0 158 158 0 158"></polygon>
            <path d="M131.8,13 L26.2,13 C18.94,13 13.066,18.94 13.066,26.2 L13,145 L39.4,118.6 L131.8,118.6 C139.06,118.6 145,112.66 145,105.4 L145,26.2 C145,18.94 139.06,13 131.8,13 Z M107.908,83.62 L92.2,71.08 L92.2,85.6 C92.2,89.23 89.23,92.2 85.6,92.2 L46,92.2 C42.37,92.2 39.4,89.23 39.4,85.6 L39.4,46 C39.4,42.37 42.37,39.4 46,39.4 L85.6,39.4 C89.23,39.4 92.2,42.37 92.2,46 L92.2,60.52 L107.908,47.98 C112.198,44.548 118.6,47.584 118.6,53.128 L118.6,78.472 C118.6,84.016 112.198,87.052 107.908,83.62 L107.908,83.62 Z" id="Shape" fill="#000000" fill-rule="nonzero"></path>
        </g>
    </g>
</svg>